<svg fill="none" height="32" viewBox="0 0 155 32" width="155" xmlns="http://www.w3.org/2000/svg"><g fill="#08111d"><path clip-rule="evenodd" d="m0 24.4785v-8.7483h9.12096v8.7483zm9.12096-8.7483v-8.74845h9.12094v8.74845z" fill-rule="evenodd"/><path d="m22.8356 31.8496v-24.71813h3.5349v3.98243l-.5423-.2994c.1381-.6638.5218-1.29756 1.1561-1.9064.6343-.60885 1.4119-1.1079 2.3276-1.49217s1.8671-.5789 2.8391-.5789c1.6114 0 3.0386.38926 4.2868 1.16279s2.2303 1.83652 2.9568 3.18398c.7264 1.3474 1.0896 2.8995 1.0896 4.6462 0 1.7466-.3581 3.2688-1.0692 4.6262-.7162 1.3624-1.6932 2.4354-2.9414 3.2189s-2.655 1.1777-4.2152 1.1777c-1.0436 0-2.0513-.2046-3.0284-.6138-.977-.4092-1.8006-.9332-2.481-1.577-.6804-.6388-1.0998-1.3025-1.2584-1.9912l.885-.4641v11.6429zm8.8448-10.1508c1.0435 0 1.9745-.2545 2.7879-.7635.8185-.5091 1.463-1.2077 1.9388-2.0911.4757-.8833.7162-1.8914.7162-3.0192 0-1.1279-.2302-2.131-.6957-3.0043-.4656-.8734-1.105-1.5621-1.9235-2.0711s-1.7597-.76355-2.8237-.76355c-1.0641 0-2.0053.24955-2.8238.74855-.8185.4991-1.463 1.1878-1.9388 2.0761-.4757.8833-.7162 1.8914-.7162 3.0193 0 1.1278.2405 2.1359.7162 3.0192.4758.8834 1.1203 1.582 1.9388 2.0911.8185.509 1.7546.7635 2.8238.7635z"/><path d="m42.6992 24.5534v-17.42193h3.5348v5.47463l-.3376-1.3275c.2506-.8384.6752-1.60196 1.2737-2.29065.5985-.68371 1.2942-1.22768 2.0769-1.62692s1.5909-.59886 2.4299-.59886c.3837 0 .752.03493 1.1049.09981.353.06488.6292.14472.8339.23455l-.9208 3.71797c-.2711-.1098-.573-.2046-.9004-.2795-.3273-.0748-.6496-.1148-.9668-.1148-.6138 0-1.197.1148-1.7495.3494-.5576.2345-1.0436.5539-1.463.9631-.4195.4093-.752.8834-1.0027 1.4273-.2506.544-.3734 1.1329-.3734 1.7767v9.6217h-3.5348z"/><path d="m62.312 24.8828c-1.7444 0-3.3046-.3943-4.6755-1.1778-1.371-.7835-2.4555-1.8565-3.2484-3.2189s-1.1919-2.9144-1.1919-4.6611.3939-3.2988 1.1919-4.6612c.7929-1.3624 1.8774-2.43536 3.2484-3.21888 1.3709-.78351 2.9311-1.17776 4.6755-1.17776s3.2688.39425 4.6398 1.17776c1.371.78352 2.4554 1.85648 3.2483 3.21888.793 1.3624 1.192 2.9145 1.192 4.6612s-.399 3.3037-1.192 4.6611c-.7929 1.3624-1.8773 2.4354-3.2483 3.2189s-2.921 1.1778-4.6398 1.1778zm0-3.1191c1.0641 0 2.0155-.2595 2.8545-.7785.8389-.519 1.4988-1.2277 1.9746-2.121.4757-.8933.7008-1.9064.6803-3.0342.0205-1.1479-.2046-2.1709-.6803-3.0692-.4758-.8933-1.1357-1.597-1.9746-2.106-.839-.5091-1.7904-.76357-2.8545-.76357-1.064 0-2.0257.25947-2.8749.77857-.8492.519-1.5142 1.2276-1.9899 2.1209-.4758.8933-.7008 1.9064-.6804 3.0343-.0204 1.1278.2046 2.1409.6804 3.0342.4757.8983 1.1407 1.602 1.9899 2.121s1.8058.7785 2.8749.7785z"/><path d="m73.5611 31.8496v-24.71813h3.5348v3.98243l-.5423-.2994c.1381-.6638.5218-1.29756 1.1561-1.9064.6343-.60885 1.4119-1.1079 2.3276-1.49217s1.8671-.5789 2.8391-.5789c1.6114 0 3.0386.38926 4.2868 1.16279s2.2303 1.83652 2.9568 3.18398c.7264 1.3474 1.0896 2.8995 1.0896 4.6462 0 1.7466-.3581 3.2688-1.0692 4.6262-.7162 1.3624-1.6932 2.4354-2.9414 3.2189s-2.655 1.1777-4.2152 1.1777c-1.0435 0-2.0513-.2046-3.0284-.6138-.977-.4092-1.8006-.9332-2.481-1.577-.6804-.6388-1.0998-1.3025-1.2584-1.9912l.885-.4641v11.6429zm8.8447-10.1508c1.0435 0 1.9745-.2545 2.7879-.7635.8185-.5091 1.4631-1.2077 1.9388-2.0911.4757-.8833.7162-1.8914.7162-3.0192 0-1.1279-.2302-2.131-.6957-3.0043-.4656-.8734-1.105-1.5621-1.9235-2.0711s-1.7597-.76355-2.8237-.76355c-1.0641 0-2.0053.24955-2.8238.74855-.8185.4991-1.463 1.1878-1.9388 2.0761-.4757.8833-.7161 1.8914-.7161 3.0193 0 1.1278.2404 2.1359.7161 3.0192.4758.8834 1.1203 1.582 1.9388 2.0911.8185.509 1.7546.7635 2.8238.7635z"/><path d="m101.84 24.8828c-1.837 0-3.4636-.3793-4.8806-1.1428-1.417-.7636-2.5271-1.8066-3.3353-3.1341-.8032-1.3275-1.2073-2.8546-1.2073-4.5763 0-1.3724.2251-2.62.6804-3.7479s1.0845-2.106 1.8876-2.93444c.8031-.82842 1.77-1.4722 2.8903-1.92634s2.3429-.67871 3.6579-.67871c1.156 0 2.23.21459 3.233.64877.997.42918 1.867 1.02305 2.603 1.77662.737.75358 1.305 1.6419 1.699 2.6699.394 1.0281.583 2.151.563 3.3686l-.036 1.4623h-14.5897l-.7827-2.7199h12.3434l-.511.564v-.7985c-.067-.7286-.317-1.3824-.747-1.9563s-.977-1.0281-1.632-1.3624c-.66-.3344-1.371-.49908-2.143-.49908-1.223 0-2.2563.22458-3.0952.67868-.839.4542-1.4733 1.1179-1.903 1.9913-.4297.8733-.6445 1.9513-.6445 3.2338 0 1.2826.2608 2.2707.7826 3.169.5218.8933 1.2584 1.587 2.2099 2.0761.9515.489 2.0512.7286 3.2992.7286.885 0 1.704-.1447 2.466-.4292.757-.2895 1.581-.8085 2.466-1.557l1.77 2.4204c-.543.529-1.208.9931-1.99 1.3923-.783.3993-1.612.7137-2.481.9432-.875.2346-1.729.3494-2.568.3494z"/><path d="m111.871 24.5534v-24.5534h3.504v24.5534z"/><path d="m118.608 24.5534v-24.5534h3.504v24.5534z"/><path d="m133.755 24.8828c-1.836 0-3.463-.3793-4.88-1.1428-1.417-.7636-2.527-1.8066-3.335-3.1341-.803-1.3275-1.208-2.8546-1.208-4.5763 0-1.3724.226-2.62.681-3.7479s1.084-2.106 1.887-2.93444c.804-.82842 1.77-1.4722 2.891-1.92634 1.12-.45414 2.343-.67871 3.657-.67871 1.156 0 2.231.21459 3.233.64877.998.42918 1.867 1.02305 2.604 1.77662.737.75358 1.305 1.6419 1.698 2.6699.394 1.0281.584 2.151.563 3.3686l-.036 1.4623h-14.589l-.783-2.7199h12.344l-.512.564v-.7985c-.066-.7286-.317-1.3824-.746-1.9563-.43-.5739-.977-1.0281-1.632-1.3624-.66-.3344-1.371-.49908-2.144-.49908-1.222 0-2.256.22458-3.095.67868-.838.4542-1.473 1.1179-1.903 1.9913-.429.8733-.644 1.9513-.644 3.2338 0 1.2826.261 2.2707.783 3.169.521.8933 1.258 1.587 2.209 2.0761.952.489 2.052.7286 3.3.7286.885 0 1.703-.1447 2.466-.4292.757-.2895 1.58-.8085 2.465-1.557l1.77 2.4204c-.542.529-1.207.9931-1.99 1.3923-.782.3993-1.611.7137-2.481.9432-.874.2346-1.729.3494-2.568.3494z"/><path d="m143.771 24.5534v-17.42193h3.535v5.47463l-.337-1.3275c.25-.8384.675-1.60196 1.273-2.29065.599-.68371 1.295-1.22768 2.077-1.62692.783-.39924 1.591-.59886 2.43-.59886.384 0 .752.03493 1.105.09981s.629.14472.834.23455l-.921 3.71797c-.271-.1098-.573-.2046-.9-.2795-.328-.0748-.65-.1148-.967-.1148-.614 0-1.197.1148-1.75.3494-.557.2345-1.043.5539-1.463.9631-.419.4093-.752.8834-1.002 1.4273-.251.544-.374 1.1329-.374 1.7767v9.6217h-3.534z"/></g></svg>